<?xml version="1.0" encoding="UTF-8"?>
<svg version="1.1" xmlns="http://www.w3.org/2000/svg" width="1024" height="1024">
<path d="M0 0 C337.92 0 675.84 0 1024 0 C1024 337.92 1024 675.84 1024 1024 C686.08 1024 348.16 1024 0 1024 C0 686.08 0 348.16 0 0 Z " fill="#001553" transform="translate(0,0)"/>
<path d="M0 0 C1.07290283 0.43650879 1.07290283 0.43650879 2.16748047 0.88183594 C23.53367472 9.70466905 43.04697161 21.16230242 60 37 C58.43084899 40.7073348 56.12104746 43.20891864 53.375 46.125 C48.64869032 51.22720828 44.2437502 56.49070287 40 62 C39.55398438 62.57347168 39.10796875 63.14694336 38.6484375 63.73779297 C27.04866735 78.69110629 17.50296877 94.66298135 8 111 C5.25968661 109.70197664 2.85282429 108.26460736 0.41796875 106.4609375 C-29.31276452 84.74457581 -64.60745094 72.09806057 -101.8671875 77.625 C-117.29822913 80.50323072 -133.62769679 88.57715898 -143.58984375 100.92578125 C-152.04301039 113.35966349 -155.14045223 126.60561657 -152.34765625 141.47265625 C-150.31389916 148.93558463 -147.32712347 154.41666218 -142 160 C-141.38769531 160.66386719 -140.77539062 161.32773437 -140.14453125 162.01171875 C-121.905125 179.96889047 -91.33763845 185.99283434 -67.703125 193.640625 C-66.42911835 194.05385708 -65.15514698 194.46719794 -63.88121033 194.88064575 C-62.59587206 195.2975968 -61.31051739 195.71449726 -60.02514648 196.13134766 C-59.38552192 196.33879671 -58.74589735 196.54624577 -58.08689022 196.75998116 C-53.70334791 198.17971727 -49.31358316 199.57903779 -44.92211914 200.97412109 C8.99389267 218.25928527 60.22791497 246.83076194 87.13867188 298.80712891 C90.209358 304.996411 92.78468693 311.26945786 95 317.8125 C95.26651367 318.59834473 95.53302734 319.38418945 95.80761719 320.19384766 C100.11047817 333.80658574 101.52640725 347.11671176 101.375 361.3125 C101.37101196 362.07558472 101.36702393 362.83866943 101.36291504 363.62487793 C101.29143044 375.31230357 100.64454508 386.57905256 98 398 C97.74476563 399.22976563 97.48953125 400.45953125 97.2265625 401.7265625 C91.26941057 427.24940607 77.23637883 452.13764823 58 470 C57.175 470.825 56.35 471.65 55.5 472.5 C54.675 473.325 53.85 474.15 53 475 C52.54753906 475.49886719 52.09507812 475.99773437 51.62890625 476.51171875 C26.97342441 502.88878037 -13.26265331 515.06855904 -48 519 C-48.77013428 519.0942627 -49.54026855 519.18852539 -50.33374023 519.28564453 C-59.754937 520.30696694 -69.22228631 520.24274099 -78.6875 520.25 C-80.0543544 520.25151062 -80.0543544 520.25151062 -81.44882202 520.25305176 C-95.83947869 520.24231117 -109.80582695 519.51969191 -124 517 C-124.82516113 516.86609863 -125.65032227 516.73219727 -126.50048828 516.59423828 C-147.79415126 513.12450256 -168.67858186 506.59787871 -188 497 C-188.7739209 496.62117676 -189.5478418 496.24235352 -190.34521484 495.85205078 C-208.95107681 486.6750637 -225.31868322 475.14499085 -240.62890625 461.1484375 C-242.73763367 459.23772896 -244.88780105 457.39699852 -247.0625 455.5625 C-256.25111073 447.513277 -263.58806985 437.6476599 -271 428 C-271.62132812 427.28585937 -272.24265625 426.57171875 -272.8828125 425.8359375 C-274 424 -274 424 -273.72640228 422.06395912 C-272.50229854 418.5858587 -269.70298268 416.32359752 -267.11914062 413.79443359 C-266.50612595 413.18258713 -265.89311127 412.57074066 -265.26152039 411.94035339 C-263.23330902 409.91933073 -261.19479604 407.90903082 -259.15625 405.8984375 C-257.74687539 404.49719786 -256.3382341 403.09522027 -254.93029785 401.6925354 C-251.22167251 398.00103696 -247.50457153 394.31819689 -243.78521729 390.63751221 C-237.82935184 384.74082205 -231.88611302 378.83141174 -225.94340515 372.92146683 C-223.86262742 370.85468792 -221.77810155 368.79174833 -219.69299316 366.7293396 C-218.4222007 365.46856736 -217.15148521 364.20771752 -215.88085938 362.94677734 C-215.29692917 362.37115555 -214.71299896 361.79553375 -214.1113739 361.20246887 C-211.19326536 358.37739789 -211.19326536 358.37739789 -209 355 C-208.34 355 -207.68 355 -207 355 C-205.51198444 356.8231265 -204.1270982 358.65789206 -202.75 360.5625 C-193.91434317 372.37848362 -183.87798298 383.19711361 -172 392 C-171.04222656 392.72316406 -170.08445312 393.44632813 -169.09765625 394.19140625 C-137.68302686 416.96998368 -99.3456463 426.37013763 -60.90234375 420.75 C-41.60215362 417.04065415 -23.90648198 409.60458588 -12.2421875 392.96484375 C-5.27340779 381.94189974 -3.17740939 370.51676053 -5.65234375 357.59375 C-10.60112792 339.7526397 -22.40805557 328.86333753 -38 320 C-61.30556087 307.13366012 -88.27669903 300.13330191 -113.56567383 292.22412109 C-151.7617617 280.27477686 -191.51711066 267.21165365 -221 239 C-221.80824219 238.26652344 -222.61648437 237.53304687 -223.44921875 236.77734375 C-247.98268899 213.70740863 -260.94926303 177.22507698 -262.22265625 144.09765625 C-263.23130302 101.94725334 -246.966921 65.37173582 -218.6171875 34.65234375 C-214.37759285 30.35579932 -209.78642798 26.66606773 -205 23 C-203.92556742 22.13958987 -202.8513572 21.27890201 -201.77734375 20.41796875 C-147.37114941 -22.2670044 -62.37984852 -25.50602544 0 0 Z " fill="#007CFB" transform="translate(447,245)"/>
<path d="M0 0 C0.79216415 -0.00701431 1.58432831 -0.01402863 2.40049744 -0.02125549 C4.95325449 -0.03870478 7.50577918 -0.04511118 10.05859375 -0.046875 C10.93257812 -0.04754974 11.8065625 -0.04822449 12.70703125 -0.04891968 C26.51566387 -0.03199423 39.90059709 0.61627071 53.49609375 3.203125 C54.43759277 3.37473145 55.3790918 3.54633789 56.34912109 3.72314453 C109.5357989 13.60786343 154.33768055 43.25441403 185.49609375 87.203125 C186.14707031 88.10289062 186.79804687 89.00265625 187.46875 89.9296875 C188.49609375 92.203125 188.49609375 92.203125 187.97265625 94.24609375 C186.15241573 96.65863475 184.15063786 98.52896349 181.87109375 100.515625 C180.51951172 101.70285156 180.51951172 101.70285156 179.140625 102.9140625 C177.83158203 104.04714844 177.83158203 104.04714844 176.49609375 105.203125 C175.18318085 106.3484852 173.87064505 107.4942779 172.55859375 108.640625 C171.91664063 109.19878906 171.2746875 109.75695312 170.61328125 110.33203125 C168.10591079 112.54795459 165.64707786 114.81353408 163.18359375 117.078125 C159.64599427 120.3104248 156.05492119 123.40368826 152.30859375 126.390625 C146.72226122 130.89340165 141.52547255 135.76679283 136.3293457 140.71166992 C132.41338388 144.43432397 128.43366176 148.05734785 124.34985352 151.59545898 C121.86083837 153.75404778 119.40160567 155.94542485 116.94140625 158.13671875 C115.49609375 159.203125 115.49609375 159.203125 113.49609375 159.203125 C112.0796526 157.46027352 110.73874909 155.65580285 109.43359375 153.828125 C105.13093991 147.93726655 100.5149599 142.50531424 95.49609375 137.203125 C94.614375 136.24535156 93.73265625 135.28757812 92.82421875 134.30078125 C74.57862296 114.91346346 49.44135163 101.72057215 22.5625 100.8671875 C-13.07404083 100.43751871 -41.33152861 109.28756633 -67.62109375 134.32421875 C-96.148173 162.3265524 -107.61314824 202.54731956 -111.50390625 241.203125 C-111.65073853 242.62081177 -111.65073853 242.62081177 -111.80053711 244.06713867 C-112.72250035 254.21035601 -112.61572728 264.34153362 -112.56640625 274.515625 C-112.56137822 276.33528522 -112.55681763 278.15494679 -112.55273438 279.97460938 C-112.5418389 284.3841487 -112.52464709 288.79362145 -112.50390625 293.203125 C-115.10080357 289.98642439 -117.57934386 286.73162364 -119.95263672 283.34545898 C-142.70681835 250.88240798 -172.90876994 223.94383033 -211.50390625 212.203125 C-204.1347878 166.11180652 -187.86574428 121.75962748 -158.81445312 84.86767578 C-157.66232948 83.40434138 -156.52704672 81.92778061 -155.39453125 80.44921875 C-119.54494658 34.3039889 -70.00618994 8.76300528 -12.71826172 0.66821289 C-8.47283262 0.14741318 -4.27388403 0.02543025 0 0 Z " fill="#FEA411" transform="translate(660.50390625,230.796875)"/>
<path d="M0 0 C2.7025178 2.60488211 4.5982235 5.33055526 6.625 8.5 C25.48857336 37.05305913 52.39146936 56.11767963 86 63 C115.98337755 67.60203768 147.93961966 61.0695155 172.75390625 43.3984375 C185.09945058 34.19451284 199.00812059 21.98375882 206 8 C208 8 208 8 210.23046875 10.1328125 C211.14441406 11.07898438 212.05835938 12.02515625 213 13 C215.08083144 14.98362174 217.19661577 16.92887242 219.3125 18.875 C219.89008057 19.40673828 220.46766113 19.93847656 221.06274414 20.48632812 C226.33064035 25.32378516 231.68901035 30.03860176 237.140625 34.66796875 C244.27969388 40.74042972 251.25486338 46.94491051 258.1171875 53.328125 C265.84219083 60.48788418 273.94877049 67.21291171 282 74 C277.12413993 84.96409615 267.19743064 94.4731399 259 103 C258.14680176 103.89404541 258.14680176 103.89404541 257.27636719 104.80615234 C248.75520483 113.69172159 239.982302 121.78542906 230 129 C229.43941895 129.41024414 228.87883789 129.82048828 228.30126953 130.24316406 C182.04334468 163.73342436 125.44527342 173.67698212 69.71875 165.1328125 C61.69046915 163.81483639 53.806973 162.30063378 46 160 C45.29053223 159.79149414 44.58106445 159.58298828 43.85009766 159.36816406 C15.7749559 150.9229457 -8.89161925 136.81539968 -32 119 C-30.40538133 114.5958151 -28.15503028 110.66063652 -25.8125 106.625 C-9.54781916 77.95372637 -1.35584573 47.77679381 -0.4375 14.9375 C-0.39421245 13.4850161 -0.35059526 12.03254199 -0.30664062 10.58007812 C-0.20062746 7.05349009 -0.09907252 3.52679065 0 0 Z " fill="#FE8613" transform="translate(568,592)"/>
<path d="M0 0 C5.06669381 0.58076727 9.00446768 2.91854909 13.375 5.375 C14.56657715 6.04329834 14.56657715 6.04329834 15.78222656 6.72509766 C54.06126932 28.6479933 83.70956812 63.52141447 95.80859375 106.12109375 C98.70121332 117.43576214 99.36778005 128.44313121 99.3125 140.0625 C99.31100952 140.83557495 99.30951904 141.6086499 99.3079834 142.40515137 C99.26717116 154.17917762 98.66459726 165.49245361 96 177 C95.74476563 178.22976563 95.48953125 179.45953125 95.2265625 180.7265625 C89.26941057 206.24940607 75.23637883 231.13764823 56 249 C54.7625 250.2375 54.7625 250.2375 53.5 251.5 C52.2625 252.7375 52.2625 252.7375 51 254 C50.32130859 254.74830078 50.32130859 254.74830078 49.62890625 255.51171875 C24.97342441 281.88878037 -15.26265331 294.06855904 -50 298 C-50.77013428 298.0942627 -51.54026855 298.18852539 -52.33374023 298.28564453 C-61.754937 299.30696694 -71.22228631 299.24274099 -80.6875 299.25 C-82.0543544 299.25151062 -82.0543544 299.25151062 -83.44882202 299.25305176 C-97.83947869 299.24231117 -111.80582695 298.51969191 -126 296 C-126.82516113 295.86609863 -127.65032227 295.73219727 -128.50048828 295.59423828 C-149.79415126 292.12450256 -170.67858186 285.59787871 -190 276 C-190.7739209 275.62117676 -191.5478418 275.24235352 -192.34521484 274.85205078 C-210.95107681 265.6750637 -227.31868322 254.14499085 -242.62890625 240.1484375 C-244.73763367 238.23772896 -246.88780105 236.39699852 -249.0625 234.5625 C-258.25111073 226.513277 -265.58806985 216.6476599 -273 207 C-273.62132812 206.28585937 -274.24265625 205.57171875 -274.8828125 204.8359375 C-276 203 -276 203 -275.72640228 201.06395912 C-274.50229854 197.5858587 -271.70298268 195.32359752 -269.11914062 192.79443359 C-268.50612595 192.18258713 -267.89311127 191.57074066 -267.26152039 190.94035339 C-265.23330902 188.91933073 -263.19479604 186.90903082 -261.15625 184.8984375 C-259.74687539 183.49719786 -258.3382341 182.09522027 -256.93029785 180.6925354 C-253.22167251 177.00103696 -249.50457153 173.31819689 -245.78521729 169.63751221 C-239.82935184 163.74082205 -233.88611302 157.83141174 -227.94340515 151.92146683 C-225.86262742 149.85468792 -223.77810155 147.79174833 -221.69299316 145.7293396 C-220.4222007 144.46856736 -219.15148521 143.20771752 -217.88085938 141.94677734 C-217.29692917 141.37115555 -216.71299896 140.79553375 -216.1113739 140.20246887 C-213.19326536 137.37739789 -213.19326536 137.37739789 -211 134 C-210.34 134 -209.68 134 -209 134 C-207.51198444 135.8231265 -206.1270982 137.65789206 -204.75 139.5625 C-195.91434317 151.37848362 -185.87798298 162.19711361 -174 171 C-173.04222656 171.72316406 -172.08445312 172.44632813 -171.09765625 173.19140625 C-139.68302686 195.96998368 -101.3456463 205.37013763 -62.90234375 199.75 C-43.60215362 196.04065415 -25.90648198 188.60458588 -14.2421875 171.96484375 C-7.27340779 160.94189974 -5.17740939 149.51676053 -7.65234375 136.59375 C-12.34038526 119.69265616 -23.21931462 108.75595151 -37.98925781 100.11572266 C-44.14015443 96.70270693 -50.57517841 93.85156005 -57 91 C-58.01578125 90.54238281 -59.0315625 90.08476563 -60.078125 89.61328125 C-62.04709115 88.73096151 -64.02245806 87.86292739 -66 87 C-60.90346825 85.59077189 -57.81550573 86.99353928 -53 89 C-53 89.66 -53 90.32 -53 91 C-49.01939223 92.17076699 -45.08378283 93.25749403 -41 94 C-41 94.66 -41 95.32 -41 96 C-40.34 96 -39.68 96 -39 96 C-39 96.66 -39 97.32 -39 98 C-38.236875 98.28875 -37.47375 98.5775 -36.6875 98.875 C-34 100 -34 100 -31 102 C-30.030625 102.2475 -29.06125 102.495 -28.0625 102.75 C-24.10761989 104.36423678 -23.21897505 106.42100798 -21 110 C-19.34808509 111.35156675 -17.68477344 112.68962066 -16 114 C-16 114.66 -16 115.32 -16 116 C-15.34 116 -14.68 116 -14 116 C-13.67 117.32 -13.34 118.64 -13 120 C-11.68 119.67 -10.36 119.34 -9 119 C-10.65296434 114.90694544 -12.13546142 111.41016497 -15 108 C-14.67 107.34 -14.34 106.68 -14 106 C2.97390848 128.69883619 6.94737434 153.79319652 3.05859375 181.515625 C2.66005054 183.97153895 2.24507305 186.42485091 1.8125 188.875 C1.61640137 190.00760254 1.42030273 191.14020508 1.21826172 192.30712891 C-0.4609258 201.04328563 -3.02813304 209.54219956 -8 217 C-8.30808594 217.79019531 -8.61617188 218.58039063 -8.93359375 219.39453125 C-12.11737062 227.17320955 -18.22275295 233.56849083 -23.8515625 239.66796875 C-25.76259324 241.74230575 -27.61252941 243.85009562 -29.4375 246 C-32.42376843 249.49611914 -35.59236391 252.39495655 -39.08203125 255.359375 C-40.29804721 256.39955159 -41.50502849 257.4504622 -42.69921875 258.515625 C-48.63901096 263.7769794 -55.19227868 267.95352258 -62 272 C-63.06734375 272.639375 -64.1346875 273.27875 -65.234375 273.9375 C-76.56460962 280.62317153 -76.56460962 280.62317153 -82.9375 282.33203125 C-85.17319571 282.99179645 -85.17319571 282.99179645 -87.75390625 284.4453125 C-91.39496788 286.18916633 -95.02638452 287.16335046 -98.9375 288.0625 C-100.30105856 288.3855505 -101.66434283 288.70976102 -103.02734375 289.03515625 C-103.68847168 289.19000488 -104.34959961 289.34485352 -105.03076172 289.50439453 C-106.97816782 289.99450541 -108.89839525 290.58875513 -110.81640625 291.18359375 C-114 292 -114 292 -117 291 C-117 291.66 -117 292.32 -117 293 C-115.08654673 293.53251766 -113.1690705 294.05059483 -111.25 294.5625 C-110.18265625 294.85253906 -109.1153125 295.14257812 -108.015625 295.44140625 C-105.15227487 296.19447466 -105.15227487 296.19447466 -102.984375 295.46484375 C-101 295 -101 295 -98.20703125 295.96484375 C-94.39145242 297.19642522 -91.66256455 296.96289591 -87.6875 296.5625 C-83.28481715 296.18623929 -79.19629829 295.91015339 -74.8125 296.5 C-71.30077954 297.19810871 -71.30077954 297.19810871 -69.1171875 296.52734375 C-66.44721595 295.86231393 -64.0603907 295.97988368 -61.3125 296.0625 C-56.71037837 296.10701871 -52.7880854 295.65848581 -48.35546875 294.50390625 C-45.50646337 293.89441754 -42.71839535 293.69658579 -39.8125 293.5 C-35.52457394 293.19178842 -32.04676197 292.49554247 -28 291 C-26.37969933 290.64452587 -24.7539522 290.31344989 -23.125 290 C-18.69475782 289.14210136 -14.33548977 288.26123339 -10 287 C-9.67 286.34 -9.34 285.68 -9 285 C-7.14453125 284.47265625 -7.14453125 284.47265625 -4.8125 284.0625 C-0.80871282 283.26556784 2.38796154 281.93816698 6 280 C6.66 280 7.32 280 8 280 C8 279.34 8 278.68 8 278 C8.99 277.773125 9.98 277.54625 11 277.3125 C14.07621308 276.45488908 16.40933301 275.20627799 19.0625 273.4375 C22.35357986 271.25627748 24.99774842 270.30016887 29 270 C29 269.34 29 268.68 29 268 C31.11768204 265.35289744 32.76564134 264.73033905 36 264 C37.16685266 262.83314734 38.32023562 261.6519178 39.4375 260.4375 C41 259 41 259 44 258 C44.33 257.34 44.66 256.68 45 256 C45.66 256 46.32 256 47 256 C47.66 254.68 48.32 253.36 49 252 C49.66 252 50.32 252 51 252 C51.33 251.01 51.66 250.02 52 249 C52.66 249 53.32 249 54 249 C54.3403125 247.88625 54.3403125 247.88625 54.6875 246.75 C56.24928606 243.47768636 58.12235056 242.13979061 61 240 C61.33 239.34 61.66 238.68 62 238 C62.66 238 63.32 238 64 238 C64.309375 237.38125 64.61875 236.7625 64.9375 236.125 C65.625 234.75 66.3125 233.375 67 232 C67.66 232 68.32 232 69 232 C69.28875 231.071875 69.5775 230.14375 69.875 229.1875 C71 226 71 226 73 223 C73.66 223 74.32 223 75 223 C75.33 221.35 75.66 219.7 76 218 C76.66 218 77.32 218 78 218 C78.33 216.02 78.66 214.04 79 212 C79.66 212 80.32 212 81 212 C81.20496094 211.38511719 81.40992188 210.77023437 81.62109375 210.13671875 C82.74739583 206.7578125 83.87369792 203.37890625 85 200 C85.66 200 86.32 200 87 200 C87 197.69 87 195.38 87 193 C87.66 193 88.32 193 89 193 C90.4373038 187.35344936 91.7785015 181.69714534 93 176 C93.165 175.24074219 93.33 174.48148438 93.5 173.69921875 C94.03643888 171.13856129 94.52556981 168.57287139 95 166 C95.18820312 165.01902344 95.37640625 164.03804687 95.5703125 163.02734375 C96.86194837 155.39577687 97.181243 147.98114586 97.1875 140.25 C97.1887085 138.78385254 97.1887085 138.78385254 97.18994141 137.28808594 C97.33609183 132.48472244 97.33609183 132.48472244 96 128 C95.79366083 125.89935265 95.63359614 123.79402491 95.5 121.6875 C94.85989388 111.66298088 92.2916593 93.2916593 85 86 C84.95936168 84.33382885 84.957279 82.66611905 85 81 C84.34 81 83.68 81 83 81 C82.87625 80.360625 82.7525 79.72125 82.625 79.0625 C82.315625 78.0415625 82.315625 78.0415625 82 77 C81.34 76.67 80.68 76.34 80 76 C79.375 72.9375 79.375 72.9375 79 70 C78.34 70 77.68 70 77 70 C76.896875 69.360625 76.79375 68.72125 76.6875 68.0625 C76.3471875 67.0415625 76.3471875 67.0415625 76 66 C75.01 65.67 74.02 65.34 73 65 C72.33333333 63 71.66666667 61 71 59 C69.14589423 56.89586384 69.14589423 56.89586384 67 55 C63 50.33333333 63 50.33333333 63 48 C62.34 48 61.68 48 61 48 C61 47.01 61 46.02 61 45 C60.01 45 59.02 45 58 45 C58 44.01 58 43.02 58 42 C57.34 42 56.68 42 56 42 C54.64613064 40.34997172 53.31321858 38.6825613 52 37 C51.34 36.67 50.68 36.34 50 36 C50 35.34 50 34.68 50 34 C49.34 34 48.68 34 48 34 C48 33.34 48 32.68 48 32 C47.01 32 46.02 32 45 32 C44.46632813 31.31808594 43.93265625 30.63617188 43.3828125 29.93359375 C40.08240949 25.8703107 36.09740846 23.11749802 31.875 20.0625 C30.6684375 19.17014648 30.6684375 19.17014648 29.4375 18.25976562 C21.80524845 12.68188211 13.8702807 7.77385801 5.375 3.625 C4.35148437 3.12226563 3.32796875 2.61953125 2.2734375 2.1015625 C1.14808594 1.55628906 1.14808594 1.55628906 0 1 C0 0.67 0 0.34 0 0 Z " fill="#00E4EC" transform="translate(449,466)"/>
<path d="M0 0 C2.36383772 2.98710039 4.33782225 6.13021827 6.31005859 9.37963867 C42.94191743 69.56871043 107.77482042 92.00363592 171.8125 112.375 C233.39879861 131.98493177 233.39879861 131.98493177 244.9765625 153.84375 C245.69079482 155.54636443 246.34813127 157.27254787 247 159 C247.556875 159.721875 248.11375 160.44375 248.6875 161.1875 C250 163 250 163 250 167 C248.68 167.33 247.36 167.66 246 168 C245.67 166.68 245.34 165.36 245 164 C244.34 164 243.68 164 243 164 C243 163.34 243 162.68 243 162 C242.01 161.67 241.02 161.34 240 161 C240 160.34 240 159.68 240 159 C239.1028125 158.6596875 239.1028125 158.6596875 238.1875 158.3125 C236 157 236 157 234.625 154.5 C232.47647584 151.19457821 230.73612911 151.07772955 227 150 C224.59980215 148.76134368 222.31805555 147.39083333 220 146 C220 145.34 220 144.68 220 144 C218.989375 143.731875 217.97875 143.46375 216.9375 143.1875 C213.12672558 142.1064844 209.61124792 140.62137662 206 139 C206 138.34 206 137.68 206 137 C205.278125 136.855625 204.55625 136.71125 203.8125 136.5625 C202.1017206 136.22034412 200.39275492 135.86870377 198.6875 135.5 C195.84108195 134.93366028 195.84108195 134.93366028 192.28515625 134.61035156 C188.24899505 134.11035497 184.60580651 133.05416835 180.75 131.734375 C180.07122299 131.50493698 179.39244598 131.27549896 178.69309998 131.03910828 C176.45967846 130.28290747 174.2299069 129.51649626 172 128.75 C168.76297064 127.64863877 165.5241614 126.55256635 162.28515625 125.45703125 C161.44751236 125.17299942 160.60986847 124.88896759 159.74684143 124.59632874 C153.74501945 122.56819966 147.72226247 120.61460507 141.68359375 118.69921875 C109.74190264 108.55400884 77.36404151 97.93067106 50 78 C48.68708984 77.05253906 48.68708984 77.05253906 47.34765625 76.0859375 C26.55969488 60.25069951 12.89061194 39.67074242 3.5625 15.5 C3.3152417 14.86578125 3.0679834 14.2315625 2.81323242 13.578125 C1.13817936 9.02685703 0.4612091 4.79233367 0 0 Z " fill="#0097FC" transform="translate(190,418)"/>
<path d="M0 0 C5.06669381 0.58076727 9.00446768 2.91854909 13.375 5.375 C14.56657715 6.04329834 14.56657715 6.04329834 15.78222656 6.72509766 C54.06126932 28.6479933 83.70956812 63.52141447 95.80859375 106.12109375 C98.70121332 117.43576214 99.36778005 128.44313121 99.3125 140.0625 C99.31100952 140.83557495 99.30951904 141.6086499 99.3079834 142.40515137 C99.26717116 154.17917762 98.66459726 165.49245361 96 177 C95.61714844 178.84464844 95.61714844 178.84464844 95.2265625 180.7265625 C89.26941057 206.24940607 75.23637883 231.13764823 56 249 C55.175 249.825 54.35 250.65 53.5 251.5 C52.675 252.325 51.85 253.15 51 254 C50.32130859 254.74830078 50.32130859 254.74830078 49.62890625 255.51171875 C41.67049007 264.02583482 31.57567043 270.28963398 21.5 276 C20.84201416 276.37366699 20.18402832 276.74733398 19.50610352 277.13232422 C15.76090619 279.19880486 12.12267379 280.77846702 8 282 C7.34 281.34 6.68 280.68 6 280 C6.66 280 7.32 280 8 280 C8 279.34 8 278.68 8 278 C8.99 277.773125 9.98 277.54625 11 277.3125 C14.07621308 276.45488908 16.40933301 275.20627799 19.0625 273.4375 C22.35357986 271.25627748 24.99774842 270.30016887 29 270 C29 269.34 29 268.68 29 268 C31.11768204 265.35289744 32.76564134 264.73033905 36 264 C37.16685266 262.83314734 38.32023562 261.6519178 39.4375 260.4375 C41 259 41 259 44 258 C44.33 257.34 44.66 256.68 45 256 C45.66 256 46.32 256 47 256 C47.66 254.68 48.32 253.36 49 252 C49.66 252 50.32 252 51 252 C51.33 251.01 51.66 250.02 52 249 C52.66 249 53.32 249 54 249 C54.226875 248.2575 54.45375 247.515 54.6875 246.75 C56.24928606 243.47768636 58.12235056 242.13979061 61 240 C61.33 239.34 61.66 238.68 62 238 C62.66 238 63.32 238 64 238 C64.309375 237.38125 64.61875 236.7625 64.9375 236.125 C65.625 234.75 66.3125 233.375 67 232 C67.66 232 68.32 232 69 232 C69.28875 231.071875 69.5775 230.14375 69.875 229.1875 C71 226 71 226 73 223 C73.66 223 74.32 223 75 223 C75.33 221.35 75.66 219.7 76 218 C76.66 218 77.32 218 78 218 C78.495 215.03 78.495 215.03 79 212 C79.66 212 80.32 212 81 212 C81.30744141 211.07767578 81.30744141 211.07767578 81.62109375 210.13671875 C82.74739583 206.7578125 83.87369792 203.37890625 85 200 C85.66 200 86.32 200 87 200 C87 197.69 87 195.38 87 193 C87.66 193 88.32 193 89 193 C90.4373038 187.35344936 91.7785015 181.69714534 93 176 C93.165 175.24074219 93.33 174.48148438 93.5 173.69921875 C94.03643888 171.13856129 94.52556981 168.57287139 95 166 C95.18820312 165.01902344 95.37640625 164.03804687 95.5703125 163.02734375 C96.86194837 155.39577687 97.181243 147.98114586 97.1875 140.25 C97.18830566 139.27256836 97.18911133 138.29513672 97.18994141 137.28808594 C97.33609183 132.48472244 97.33609183 132.48472244 96 128 C95.79366083 125.89935265 95.63359614 123.79402491 95.5 121.6875 C94.85989388 111.66298088 92.2916593 93.2916593 85 86 C84.95936168 84.33382885 84.957279 82.66611905 85 81 C84.34 81 83.68 81 83 81 C82.87625 80.360625 82.7525 79.72125 82.625 79.0625 C82.41875 78.381875 82.2125 77.70125 82 77 C81.34 76.67 80.68 76.34 80 76 C79.375 72.9375 79.375 72.9375 79 70 C78.34 70 77.68 70 77 70 C76.896875 69.360625 76.79375 68.72125 76.6875 68.0625 C76.460625 67.381875 76.23375 66.70125 76 66 C74.515 65.505 74.515 65.505 73 65 C72.33333333 63 71.66666667 61 71 59 C69.14589423 56.89586384 69.14589423 56.89586384 67 55 C63 50.33333333 63 50.33333333 63 48 C62.34 48 61.68 48 61 48 C61 47.01 61 46.02 61 45 C60.01 45 59.02 45 58 45 C58 44.01 58 43.02 58 42 C57.34 42 56.68 42 56 42 C54.64613064 40.34997172 53.31321858 38.6825613 52 37 C51.01 36.505 51.01 36.505 50 36 C50 35.34 50 34.68 50 34 C49.34 34 48.68 34 48 34 C48 33.34 48 32.68 48 32 C47.01 32 46.02 32 45 32 C44.46632813 31.31808594 43.93265625 30.63617188 43.3828125 29.93359375 C40.08240949 25.8703107 36.09740846 23.11749802 31.875 20.0625 C31.070625 19.46759766 30.26625 18.87269531 29.4375 18.25976562 C21.80524845 12.68188211 13.8702807 7.77385801 5.375 3.625 C4.35148437 3.12226563 3.32796875 2.61953125 2.2734375 2.1015625 C1.52320313 1.73804688 0.77296875 1.37453125 0 1 C0 0.67 0 0.34 0 0 Z " fill="#01D9F2" transform="translate(449,466)"/>
<path d="M0 0 C5.06669381 0.58076727 9.00446768 2.91854909 13.375 5.375 C14.56657715 6.04329834 14.56657715 6.04329834 15.78222656 6.72509766 C54.00070683 28.61330839 84.13827459 63.71016332 95.84375 106.4453125 C97.90810806 114.39046129 99.84939948 121.86264227 98 130 C95.27404425 127.27404425 95.63994507 125.49088293 95.4375 121.6875 C94.87751314 111.66487801 92.29235867 93.29235867 85 86 C84.95936168 84.33382885 84.957279 82.66611905 85 81 C84.34 81 83.68 81 83 81 C82.87625 80.360625 82.7525 79.72125 82.625 79.0625 C82.41875 78.381875 82.2125 77.70125 82 77 C81.34 76.67 80.68 76.34 80 76 C79.375 72.9375 79.375 72.9375 79 70 C78.34 70 77.68 70 77 70 C76.896875 69.360625 76.79375 68.72125 76.6875 68.0625 C76.460625 67.381875 76.23375 66.70125 76 66 C74.515 65.505 74.515 65.505 73 65 C72.33333333 63 71.66666667 61 71 59 C69.14589423 56.89586384 69.14589423 56.89586384 67 55 C63 50.33333333 63 50.33333333 63 48 C62.34 48 61.68 48 61 48 C61 47.01 61 46.02 61 45 C60.01 45 59.02 45 58 45 C58 44.01 58 43.02 58 42 C57.34 42 56.68 42 56 42 C54.64613064 40.34997172 53.31321858 38.6825613 52 37 C51.01 36.505 51.01 36.505 50 36 C50 35.34 50 34.68 50 34 C49.34 34 48.68 34 48 34 C48 33.34 48 32.68 48 32 C47.01 32 46.02 32 45 32 C44.46632813 31.31808594 43.93265625 30.63617188 43.3828125 29.93359375 C40.08240949 25.8703107 36.09740846 23.11749802 31.875 20.0625 C31.070625 19.46759766 30.26625 18.87269531 29.4375 18.25976562 C21.80524845 12.68188211 13.8702807 7.77385801 5.375 3.625 C4.35148437 3.12226563 3.32796875 2.61953125 2.2734375 2.1015625 C1.52320313 1.73804688 0.77296875 1.37453125 0 1 C0 0.67 0 0.34 0 0 Z " fill="#00A1F2" transform="translate(449,466)"/>
<path d="M0 0 C5.26053037 -0.31563182 8.44573816 0.33409063 13 3 C13 3.66 13 4.32 13 5 C16.98060777 6.17076699 20.91621717 7.25749403 25 8 C25 8.66 25 9.32 25 10 C25.66 10 26.32 10 27 10 C27 10.66 27 11.32 27 12 C27.763125 12.28875 28.52625 12.5775 29.3125 12.875 C32 14 32 14 35 16 C35.969375 16.2475 36.93875 16.495 37.9375 16.75 C41.89238011 18.36423678 42.78102495 20.42100798 45 24 C46.65191491 25.35156675 48.31522656 26.68962066 50 28 C50 28.66 50 29.32 50 30 C50.66 30 51.32 30 52 30 C52.495 31.98 52.495 31.98 53 34 C54.98 33.505 54.98 33.505 57 33 C55.34703566 28.90694544 53.86453858 25.41016497 51 22 C51.33 21.34 51.66 20.68 52 20 C68.75397194 42.40471987 68.75397194 42.40471987 67.6875 54.5625 C67.460625 55.366875 67.23375 56.17125 67 57 C66.34 56.67 65.68 56.34 65 56 C64.5859375 53.27734375 64.5859375 53.27734375 64.375 49.9375 C64.26285156 48.28041016 64.26285156 48.28041016 64.1484375 46.58984375 C64.09945312 45.73519531 64.05046875 44.88054688 64 44 C62.35189004 45.18831251 62.35189004 45.18831251 61 47 C61.0709961 49.31604192 61.0709961 49.31604192 61.8125 51.6875 C62.02519531 52.49574219 62.23789062 53.30398438 62.45703125 54.13671875 C62.63621094 54.75160156 62.81539063 55.36648438 63 56 C62.01 56.495 62.01 56.495 61 57 C58.92801674 53.89202512 58.26449232 51.58397108 57.3125 48 C52.3161829 31.42550157 40.70335918 21.1586148 26 13 C20.43139274 10.12217006 14.72772598 7.54216469 9 5 C7.98421875 4.54238281 6.9684375 4.08476563 5.921875 3.61328125 C3.95290885 2.73096151 1.97754194 1.86292739 0 1 C0 0.67 0 0.34 0 0 Z " fill="#00D2F6" transform="translate(383,552)"/>
<path d="M0 0 C4.43181266 3.67615797 6.46952496 8.39760315 8.875 13.5 C9.31263672 14.42546631 9.75027344 15.35093262 10.20117188 16.30444336 C16.48275277 29.98219141 24.46221315 48.76626213 21 64 C18.27404425 61.27404425 18.63994507 59.49088293 18.4375 55.6875 C17.87751314 45.66487801 15.29235867 27.29235867 8 20 C7.95936168 18.33382885 7.957279 16.66611905 8 15 C7.34 15 6.68 15 6 15 C5.87625 14.360625 5.7525 13.72125 5.625 13.0625 C5.41875 12.381875 5.2125 11.70125 5 11 C4.34 10.67 3.68 10.34 3 10 C2.375 6.9375 2.375 6.9375 2 4 C1.34 4 0.68 4 0 4 C0 2.68 0 1.36 0 0 Z " fill="#00BAEF" transform="translate(526,532)"/>
<path d="M0 0 C2.89149713 3.52008346 2.89149713 3.52008346 3.40625 5.796875 C6.77500189 18.29671755 17.94992267 31.06843454 26.21484375 40.72265625 C28 43 28 43 29 46 C29.66 46 30.32 46 31 46 C32.4375 47.49609375 32.4375 47.49609375 34 49.4375 C36.14525044 52.15188238 36.14525044 52.15188238 39 54 C39 54.66 39 55.32 39 56 C39.56203125 56.24492187 40.1240625 56.48984375 40.703125 56.7421875 C43.41865854 58.22926539 45.46391438 60.04062782 47.75 62.125 C48.54921875 62.84945312 49.3484375 63.57390625 50.171875 64.3203125 C50.77515625 64.87460937 51.3784375 65.42890625 52 66 C47.58874929 66 45.39915744 63.22863928 42.25 60.4375 C41.61747314 59.88392822 40.98494629 59.33035645 40.33325195 58.76000977 C25.02723454 45.27910012 12.61960338 29.0053384 3 11 C3 10.34 3 9.68 3 9 C2.34 9 1.68 9 1 9 C0.67 6.03 0.34 3.06 0 0 Z " fill="#0042FB" transform="translate(188,409)"/>
<path d="M0 0 C22.84074402 3.52400051 46.58448557 21.66445363 63 37 C61.31847927 40.74020498 59.30960527 42.56134348 56 45 C57.33333333 42.33333333 58.66666667 39.66666667 60 37 C56.67849887 34.31829622 53.34291636 31.65495386 50 29 C49.37867188 28.49984375 48.75734375 27.9996875 48.1171875 27.484375 C38.31571764 19.83659134 27.29916093 13.16067446 16 8 C15.67 8.66 15.34 9.32 15 10 C14.67 9.01 14.34 8.02 14 7 C11.64522059 5.80369056 9.38252884 4.78047329 6.9375 3.8125 C6.27427734 3.53986328 5.61105469 3.26722656 4.92773438 2.98632812 C3.28915183 2.3143914 1.64506597 1.65590372 0 1 C0 0.67 0 0.34 0 0 Z " fill="#0097F0" transform="translate(444,245)"/>
<path d="M0 0 C0.495 0.99 0.495 0.99 1 2 C-18.33333333 21.33333333 -37.66666667 40.66666667 -57 60 C-57 56.33800144 -55.87011991 55.51824793 -53.38270569 53.00944519 C-52.84971359 52.48723892 -52.3167215 51.96503265 -51.76757812 51.42700195 C-51.2116246 50.87061035 -50.65567108 50.31421875 -50.08287048 49.7409668 C-48.23935068 47.89954076 -46.38542415 46.06897368 -44.53125 44.23828125 C-43.2526441 42.96526919 -41.97469797 41.69159416 -40.6973877 40.4172821 C-37.3304878 37.06184756 -33.95467651 33.71551825 -30.57696533 30.37097168 C-27.13314919 26.95781987 -23.69778894 23.53618091 -20.26171875 20.11523438 C-13.51608694 13.40179655 -6.76101565 6.6979422 0 0 Z " fill="#01F6F9" transform="translate(235,604)"/>
<path d="M0 0 C0.66 0.33 1.32 0.66 2 1 C-1.15657998 3.59122237 -4.39074257 5.98810232 -7.75805664 8.29785156 C-13.5248797 12.27764648 -18.91585359 16.49144178 -24.0625 21.25 C-24.58585937 21.73275391 -25.10921875 22.21550781 -25.6484375 22.71289062 C-29.06000964 25.93493098 -32.03901721 29.36089003 -35 33 C-36 34 -37 35 -38 36 C-38.66 36.99 -39.32 37.98 -40 39 C-42.125 39.6875 -42.125 39.6875 -44 40 C-33.04157103 24.45328573 -17.26051368 8.63025684 0 0 Z " fill="#0059F5" transform="translate(259,256)"/>
<path d="M0 0 C-0.66 0 -1.32 0 -2 0 C-2.33 0.99 -2.66 1.98 -3 3 C-7.43838411 5.50865189 -10.86296069 7 -16 7 C-16 7.66 -16 8.32 -16 9 C-16.66 9 -17.32 9 -18 9 C-18 9.66 -18 10.32 -18 11 C-18.721875 11.061875 -19.44375 11.12375 -20.1875 11.1875 C-23.86573212 12.25010039 -25.42727926 14.22416973 -28 17 C-28.99 17.66 -29.98 18.32 -31 19 C-31.99 18.67 -32.98 18.34 -34 18 C-34 17.34 -34 16.68 -34 16 C-31.86115134 14.51878585 -29.74261197 13.18346718 -27.5 11.875 C-26.83452148 11.4826416 -26.16904297 11.0902832 -25.48339844 10.68603516 C-20.47901602 7.77517996 -15.40157081 5.01607029 -10.25 2.375 C-9.57130859 2.02034668 -8.89261719 1.66569336 -8.19335938 1.30029297 C-3.35713404 -1.11904468 -3.35713404 -1.11904468 0 0 Z " fill="#F5BF0C" transform="translate(588,249)"/>
<path d="M0 0 C0 0.66 0 1.32 0 2 C-1.98567708 2.22786458 -3.97135417 2.45572917 -5.95703125 2.68359375 C-8.19396393 2.97170735 -8.19396393 2.97170735 -11 4 C-13.06145107 4.068991 -15.12501401 4.08467727 -17.1875 4.0625 C-18.81751953 4.04896484 -18.81751953 4.04896484 -20.48046875 4.03515625 C-21.31191406 4.02355469 -22.14335938 4.01195312 -23 4 C-23 4.66 -23 5.32 -23 6 C-26 7 -26 7 -29.0625 6.875 C-33.28910535 7.00917795 -36.58641079 7.92873328 -40.5703125 9.24609375 C-43.0305835 10.00948974 -45.46786455 10.53592535 -48 11 C-47 9 -47 9 -45.21264648 8.26977539 C-44.05357788 7.93707642 -44.05357788 7.93707642 -42.87109375 7.59765625 C-42.00846924 7.34838379 -41.14584473 7.09911133 -40.25708008 6.84228516 C-39.32661865 6.58495605 -38.39615723 6.32762695 -37.4375 6.0625 C-36.48963623 5.79743652 -35.54177246 5.53237305 -34.56518555 5.25927734 C-23.23892406 2.15773271 -11.83717559 -0.76827822 0 0 Z " fill="#F5C70B" transform="translate(647,233)"/>
<path d="M0 0 C0.33 0 0.66 0 1 0 C3.94725805 19.38388946 1.38911773 35.26150287 -4 54 C-4.94604685 50.98208109 -4.99803938 49.05381662 -4.22265625 46 C-0.89391929 31.67024668 -0.61443826 18.02643169 -1.05004883 3.35058594 C-1 1 -1 1 0 0 Z " fill="#00AEF6" transform="translate(453,611)"/>
<path d="M0 0 C0.33 0 0.66 0 1 0 C0.99476318 1.00788574 0.98952637 2.01577148 0.98413086 3.05419922 C0.96586245 6.83755587 0.95448915 10.62090872 0.94506836 14.40429688 C0.94007761 16.03353534 0.93328265 17.66276942 0.92456055 19.29199219 C0.87950547 27.93196627 0.89843851 36.41302461 2 45 C1.01 45.495 1.01 45.495 0 46 C-1.48986492 37.34016013 -2.19374337 28.91175963 -2.1875 20.125 C-2.18814453 19.2585083 -2.18878906 18.3920166 -2.18945312 17.49926758 C-2.05957135 2.05957135 -2.05957135 2.05957135 0 0 Z " fill="#0048E1" transform="translate(187,363)"/>
<path d="M0 0 C1.48828125 1.05078125 1.48828125 1.05078125 3 3 C3.29296875 6.35546875 3.29296875 6.35546875 3.1875 10.1875 C3.16042969 11.45980469 3.13335938 12.73210938 3.10546875 14.04296875 C3.07066406 15.01878906 3.03585937 15.99460937 3 17 C1.66562156 15.33416996 0.33245795 13.66736659 -1 12 C-1.50144531 11.37996094 -2.00289062 10.75992188 -2.51953125 10.12109375 C-2.94621094 9.56550781 -3.37289062 9.00992188 -3.8125 8.4375 C-4.25207031 7.87933594 -4.69164062 7.32117188 -5.14453125 6.74609375 C-6 5 -6 5 -5.63671875 2.78515625 C-5.42660156 2.19605469 -5.21648438 1.60695313 -5 1 C-4.34 1.66 -3.68 2.32 -3 3 C-2.34 3.33 -1.68 3.66 -1 4 C-0.67 2.68 -0.34 1.36 0 0 Z " fill="#E68B12" transform="translate(545,507)"/>
<path d="M0 0 C3 3 3 3 5 6 C4.67 6.99 4.34 7.98 4 9 C3.67 8.67 3.34 8.34 3 8 C2.34 15.92 1.68 23.84 1 32 C0.67 32 0.34 32 0 32 C0 21.44 0 10.88 0 0 Z " fill="#F7960E" transform="translate(568,592)"/>
<path d="M0 0 C0.66 0.66 1.32 1.32 2 2 C1.9074707 4.27490234 1.9074707 4.27490234 1.42578125 7.0859375 C1.25240234 8.09914063 1.07902344 9.11234375 0.90039062 10.15625 C0.70638672 11.2184375 0.51238281 12.280625 0.3125 13.375 C0.13783203 14.42945313 -0.03683594 15.48390625 -0.21679688 16.5703125 C-0.39662109 17.58609375 -0.57644531 18.601875 -0.76171875 19.6484375 C-0.92631592 20.57833496 -1.09091309 21.50823242 -1.26049805 22.46630859 C-2.05785572 25.19822605 -3.16387712 26.85034661 -5 29 C-4.15533981 4.15533981 -4.15533981 4.15533981 0 0 Z " fill="#F58E0E" transform="translate(552,437)"/>
<path d="M0 0 C2.80741254 3.59784909 5.23787587 7.4056138 7.6875 11.25 C8.10322266 11.8996875 8.51894531 12.549375 8.94726562 13.21875 C9.96623009 14.811614 10.9833053 16.4056863 12 18 C10 19 10 19 7.0234375 18.4609375 C4 17 4 17 2.5390625 14.1015625 C2.23742187 12.95429688 1.93578125 11.80703125 1.625 10.625 C1.30789062 9.48289062 0.99078125 8.34078125 0.6640625 7.1640625 C0 4 0 4 0 0 Z " fill="#007BF9" transform="translate(190,418)"/>
<path d="M0 0 C5.26053037 -0.31563182 8.44573816 0.33409063 13 3 C13 3.66 13 4.32 13 5 C16.98060777 6.17076699 20.91621717 7.25749403 25 8 C25 8.66 25 9.32 25 10 C25.66 10.33 26.32 10.66 27 11 C22.85783399 12.380722 20.56745463 10.6534985 16.875 8.8125 C15.52764008 8.16084529 14.17998433 7.50980188 12.83203125 6.859375 C12.17799316 6.54033203 11.52395508 6.22128906 10.85009766 5.89257812 C7.27506207 4.16780508 3.63458364 2.59411563 0 1 C0 0.67 0 0.34 0 0 Z " fill="#01BDF4" transform="translate(383,552)"/>
<path d="M0 0 C1.16337649 3.38223181 0.85768787 5.16445459 -0.4765625 8.44921875 C-0.81816406 9.29806641 -1.15976562 10.14691406 -1.51171875 11.02148438 C-1.87910156 11.90126953 -2.24648438 12.78105469 -2.625 13.6875 C-2.96917969 14.54794922 -3.31335938 15.40839844 -3.66796875 16.29492188 C-6.0446365 22.11381137 -8.82633882 27.57674886 -12 33 C-13.231394 30.53721199 -13.07159196 28.7204945 -13 26 C-12.01 25.67 -11.02 25.34 -10 25 C-8.48708611 22.29216104 -8.48708611 22.29216104 -7.25 19.0625 C-6.80140625 17.98097656 -6.3528125 16.89945313 -5.890625 15.78515625 C-4.66854018 13.08092711 -4.66854018 13.08092711 -6 11 C-5.01 11 -4.02 11 -3 11 C-2.86722656 10.37351562 -2.73445312 9.74703125 -2.59765625 9.1015625 C-2.42105469 8.28429687 -2.24445312 7.46703125 -2.0625 6.625 C-1.88847656 5.81289063 -1.71445312 5.00078125 -1.53515625 4.1640625 C-1 2 -1 2 0 0 Z " fill="#090A5A" transform="translate(558,660)"/>
<path d="M0 0 C4.42336606 1.51325681 7.99880958 3.90049431 11.75 6.625 C12.36182129 7.06505371 12.97364258 7.50510742 13.60400391 7.95849609 C18.68671149 11.6646092 23.43144225 15.67316488 28 20 C24.39477607 20 23.67727969 19.21230809 20.9375 17 C18.2881878 14.63307454 18.2881878 14.63307454 15 14 C14.7525 13.360625 14.505 12.72125 14.25 12.0625 C13.18437567 9.81258459 13.18437567 9.81258459 10.875 9.25 C10.25625 9.1675 9.6375 9.085 9 9 C9 8.01 9 7.02 9 6 C8.2575 5.7525 7.515 5.505 6.75 5.25 C3.79875938 3.90852699 2.15185026 2.39094474 0 0 Z " fill="#F3CF0C" transform="translate(786,262)"/>
<path d="M0 0 C5.54955043 0.57610313 10.26029497 2.02098548 15.4375 4.0625 C16.16904297 4.34416016 16.90058594 4.62582031 17.65429688 4.91601562 C19.43873546 5.60413247 21.21973905 6.30114606 23 7 C23 7.66 23 8.32 23 9 C20.87429688 8.52396226 18.74945573 8.04407402 16.625 7.5625 C15.44164062 7.29566406 14.25828125 7.02882812 13.0390625 6.75390625 C10 6 10 6 8 5 C8 4.34 8 3.68 8 3 C7.34 3 6.68 3 6 3 C5.67 3.66 5.34 4.32 5 5 C4.67 4.34 4.34 3.68 4 3 C3.01 3 2.02 3 1 3 C0.67 2.01 0.34 1.02 0 0 Z " fill="#F3C60C" transform="translate(736,240)"/>
<path d="M0 0 C0.66 0 1.32 0 2 0 C0.125 4.75 0.125 4.75 -1 7 C-0.34 7.33 0.32 7.66 1 8 C0.67386719 8.49628906 0.34773438 8.99257813 0.01171875 9.50390625 C-2.80691479 13.88567579 -5.08254414 18.15590098 -7 23 C-8.11083984 21.28417969 -8.11083984 21.28417969 -9 19 C-8.40087891 16.80175781 -8.40087891 16.80175781 -7.2265625 14.453125 C-6.8140625 13.60878906 -6.4015625 12.76445312 -5.9765625 11.89453125 C-5.30753906 10.58548828 -5.30753906 10.58548828 -4.625 9.25 C-4.18671875 8.36183594 -3.7484375 7.47367187 -3.296875 6.55859375 C-2.21185351 4.36496334 -1.11265262 2.17970992 0 0 Z " fill="#EB9412" transform="translate(479,350)"/>
<path d="M0 0 C0.680625 -0.01224609 1.36125 -0.02449219 2.0625 -0.03710938 C3.83490756 -0.04236355 5.6067994 0.06534094 7.375 0.1875 C8.035 0.8475 8.695 1.5075 9.375 2.1875 C5.8525246 3.26668977 2.54740199 3.35394265 -1.125 3.375 C-2.2490625 3.38917969 -3.373125 3.40335938 -4.53125 3.41796875 C-7.49476056 3.19720218 -9.1317415 2.7335647 -11.625 1.1875 C-7.79921227 -0.03871401 -3.97522923 0.00380769 0 0 Z " fill="#EDBD0D" transform="translate(659.625,230.8125)"/>
<path d="M0 0 C4.8603687 1.5194373 8.06079356 4.32918654 11.8125 7.625 C12.7087207 8.3984375 12.7087207 8.3984375 13.62304688 9.1875 C15.08712409 10.45246272 16.54427155 11.72543834 18 13 C16.31847927 16.74020498 14.30960527 18.56134348 11 21 C12.33333333 18.33333333 13.66666667 15.66666667 15 13 C14.33613281 12.48050781 13.67226563 11.96101563 12.98828125 11.42578125 C8.41377883 7.81292606 3.98940601 4.25536641 0 0 Z " fill="#00AAF7" transform="translate(489,269)"/>
<path d="M0 0 C0 0.33 0 0.66 0 1 C-9.24 1 -18.48 1 -28 1 C-28 0.67 -28 0.34 -28 0 C-18.05143454 -2.18096713 -9.90666075 -1.78128063 0 0 Z " fill="#00EFF6" transform="translate(383,764)"/>
<path d="M0 0 C13.6332574 0.77904328 13.6332574 0.77904328 20 3 C20 3.33 20 3.66 20 4 C18.02 4 16.04 4 14 4 C13.67 4.66 13.34 5.32 13 6 C13 5.34 13 4.68 13 4 C11.7315625 4.0928125 11.7315625 4.0928125 10.4375 4.1875 C6.26380157 3.95984372 3.74567053 2.79792186 0 1 C0 0.67 0 0.34 0 0 Z " fill="#F9CB0B" transform="translate(707,234)"/>
<path d="M0 0 C2 1 2 1 6 4 C0.06 5.65 -5.88 7.3 -12 9 C-12 8.34 -12 7.68 -12 7 C-11.36191406 6.81824219 -10.72382812 6.63648438 -10.06640625 6.44921875 C-9.24011719 6.19785156 -8.41382813 5.94648438 -7.5625 5.6875 C-6.32693359 5.32205078 -6.32693359 5.32205078 -5.06640625 4.94921875 C-4.38449219 4.63597656 -3.70257812 4.32273437 -3 4 C-2.67 3.01 -2.34 2.02 -2 1 C-1.34 0.67 -0.68 0.34 0 0 Z " fill="#F8B70D" transform="translate(645,329)"/>
<path d="M0 0 C0.99 0 1.98 0 3 0 C2.44687265 4.02992782 1.8441938 8.02022924 1 12 C1.66 12 2.32 12 3 12 C3 12.66 3 13.32 3 14 C1.35 13.67 -0.3 13.34 -2 13 C-1.34 8.71 -0.68 4.42 0 0 Z " fill="#F29010" transform="translate(451,430)"/>
<path d="M0 0 C4.82043259 0.60722504 8.54860666 2.65061441 12.75 4.9375 C13.43449219 5.29779297 14.11898437 5.65808594 14.82421875 6.02929688 C19.87138731 8.74277463 19.87138731 8.74277463 21 11 C15.8164095 9.75593828 12.42744818 8.0721069 8 5 C5.36704994 3.59512284 2.69319498 2.28507781 0 1 C0 0.67 0 0.34 0 0 Z " fill="#F3D10B" transform="translate(765,251)"/>
<path d="M0 0 C0.66 0.33 1.32 0.66 2 1 C-1.82573388 4.92496041 -5.61997324 8.68179791 -10 12 C-10.66 11.67 -11.32 11.34 -12 11 C-11.566875 10.608125 -11.13375 10.21625 -10.6875 9.8125 C-8.85835102 7.99694204 -8.85835102 7.99694204 -7.5625 5.375 C-6 3 -6 3 -3.9375 2.3125 C-2.9784375 2.1578125 -2.9784375 2.1578125 -2 2 C-1.34 1.34 -0.68 0.68 0 0 Z " fill="#F5C60B" transform="translate(842,328)"/>
<path d="M0 0 C0.33 0 0.66 0 1 0 C0.5067649 7.06970306 -2.02478696 13.60468225 -5 20 C-5.66 20.33 -6.32 20.66 -7 21 C-5.180206 13.74839665 -2.93841629 6.87619244 0 0 Z " fill="#004DE9" transform="translate(197,325)"/>
<path d="M0 0 C0.99 0 1.98 0 3 0 C3 4.62 3 9.24 3 14 C2.01 14 1.02 14 0 14 C0 9.38 0 4.76 0 0 Z " fill="#002561" transform="translate(440,606)"/>
<path d="M0 0 C0.33 0 0.66 0 1 0 C1 3.63 1 7.26 1 11 C0.34 9.68 -0.32 8.36 -1 7 C-3.05000871 6.19471111 -3.05000871 6.19471111 -5 6 C-5.33 4.35 -5.66 2.7 -6 1 C-4.35 1.99 -2.7 2.98 -1 4 C-0.67 2.68 -0.34 1.36 0 0 Z " fill="#F88611" transform="translate(545,507)"/>
<path d="M0 0 C1.32 0.66 2.64 1.32 4 2 C2.90554162 2.86657116 1.79902219 3.71792724 0.6875 4.5625 C0.07261719 5.03816406 -0.54226563 5.51382812 -1.17578125 6.00390625 C-1.77777344 6.33261719 -2.37976563 6.66132813 -3 7 C-3.99 6.67 -4.98 6.34 -6 6 C-6 5.34 -6 4.68 -6 4 C-4.03852126 2.61061923 -2.03833424 1.2739589 0 0 Z " fill="#F4B50E" transform="translate(560,261)"/>
<path d="M0 0 C0.99 0 1.98 0 3 0 C3 0.66 3 1.32 3 2 C4.98 2.66 6.96 3.32 9 4 C8.67 4.99 8.34 5.98 8 7 C4.7 5.35 1.4 3.7 -2 2 C-1.34 1.34 -0.68 0.68 0 0 Z " fill="#E88C13" transform="translate(469,448)"/>
<path d="M0 0 C0.33 0.99 0.66 1.98 1 3 C-0.75 5.4375 -0.75 5.4375 -3 8 C-4.00573778 9.32901064 -5.00795408 10.66073801 -6 12 C-6.66 11.67 -7.32 11.34 -8 11 C-6.85539001 9.35331565 -5.70927742 7.70767566 -4.5625 6.0625 C-3.92441406 5.14597656 -3.28632813 4.22945313 -2.62890625 3.28515625 C-1 1 -1 1 0 0 Z " fill="#0051F1" transform="translate(214,297)"/>
<path d="M0 0 C3.63 0.66 7.26 1.32 11 2 C11 2.66 11 3.32 11 4 C11.66 4.33 12.32 4.66 13 5 C8.15340923 4.40895235 4.39251833 3.02055843 0 1 C0 0.67 0 0.34 0 0 Z " fill="#01B9F3" transform="translate(369,547)"/>
<path d="M0 0 C0.33 0 0.66 0 1 0 C0.28571429 8.57142857 0.28571429 8.57142857 -3 12 C-3.88336837 9.5332355 -4.1312406 8.36140628 -3.22265625 5.859375 C-2.83980469 5.16328125 -2.45695312 4.4671875 -2.0625 3.75 C-1.68222656 3.04359375 -1.30195313 2.3371875 -0.91015625 1.609375 C-0.60980469 1.07828125 -0.30945313 0.5471875 0 0 Z " fill="#F7960E" transform="translate(474,361)"/>
<path d="M0 0 C-1.5830577 4.2742558 -4.50568404 6.26531794 -8 9 C-7.53918323 4.85264908 -4.48412936 0 0 0 Z " fill="#0051EA" transform="translate(233,277)"/>
<path d="M0 0 C-0.33 0.99 -0.66 1.98 -1 3 C-3.64 3.33 -6.28 3.66 -9 4 C-8.67 3.01 -8.34 2.02 -8 1 C-5.07175348 0.02391783 -3.04386724 -0.08226668 0 0 Z " fill="#00D3E7" transform="translate(424,757)"/>
<path d="M0 0 C0.99 0.33 1.98 0.66 3 1 C1.68 3.31 0.36 5.62 -1 8 C-1.99 8 -2.98 8 -4 8 C-3.67 6.68 -3.34 5.36 -3 4 C-2.34 4 -1.68 4 -1 4 C-0.67 2.68 -0.34 1.36 0 0 Z " fill="#01CCE9" transform="translate(528,680)"/>
<path d="M0 0 C1.98362069 2.91708924 1.9876191 4.12380904 1.625 7.75 C1.41875 8.8225 1.2125 9.895 1 11 C0.34 11 -0.32 11 -1 11 C-0.67 8.36 -0.34 5.72 0 3 C-0.66 2.67 -1.32 2.34 -2 2 C-1.34 2 -0.68 2 0 2 C0 1.34 0 0.68 0 0 Z " fill="#F68C11" transform="translate(546,477)"/>
<path d="M0 0 C0.33 0.66 0.66 1.32 1 2 C-0.65 4.31 -2.3 6.62 -4 9 C-4.33 7.68 -4.66 6.36 -5 5 C-2.5625 2.25 -2.5625 2.25 0 0 Z " fill="#00DDF4" transform="translate(525,687)"/>
<path d="M0 0 C0.66 0 1.32 0 2 0 C1.34 2.64 0.68 5.28 0 8 C-1.32 7.34 -2.64 6.68 -4 6 C-2.7260411 3.96166576 -1.38938077 1.96147874 0 0 Z " fill="#EF940F" transform="translate(774,600)"/>
<path d="M0 0 C0.66 0 1.32 0 2 0 C2.33 1.65 2.66 3.3 3 5 C3.66 5 4.32 5 5 5 C5 7.64 5 10.28 5 13 C3.09610151 10.14415227 2.30537823 8.0688238 1.375 4.8125 C0.98441406 3.46091797 0.98441406 3.46091797 0.5859375 2.08203125 C0.39257812 1.39496094 0.19921875 0.70789063 0 0 Z " fill="#0095FA" transform="translate(447,593)"/>
<path d="M0 0 C2.97 0 5.94 0 9 0 C6.50494038 2.49505962 5.32671112 2.35948376 1.875 2.625 C0.96492188 2.69976563 0.05484375 2.77453125 -0.8828125 2.8515625 C-1.93082031 2.92503906 -1.93082031 2.92503906 -3 3 C-2.01 2.67 -1.02 2.34 0 2 C0 1.34 0 0.68 0 0 Z " fill="#020E38" transform="translate(387,663)"/>
<path d="M0 0 C3.53233755 1.17744585 3.86308075 1.95605641 5.6875 5.0625 C6.12449219 5.79597656 6.56148438 6.52945312 7.01171875 7.28515625 C7.33785156 7.85105469 7.66398437 8.41695313 8 9 C4.26127505 7.30343574 2.3711259 5.38732271 0 2 C0 1.34 0 0.68 0 0 Z " fill="#005DED" transform="translate(296,396)"/>
<path d="M0 0 C3.98175544 2.10148204 6.35039045 4.36905358 9 8 C8.401875 7.690625 7.80375 7.38125 7.1875 7.0625 C4.91043228 5.89790296 4.91043228 5.89790296 2 5 C2 4.01 2 3.02 2 2 C1.34 2 0.68 2 0 2 C0 1.34 0 0.68 0 0 Z " fill="#F59B0A" transform="translate(837,656)"/>
<path d="M0 0 C0.99 0.33 1.98 0.66 3 1 C2.34 3.31 1.68 5.62 1 8 C0.34 7.67 -0.32 7.34 -1 7 C-0.67 4.69 -0.34 2.38 0 0 Z " fill="#EC8A13" transform="translate(453,421)"/>
<path d="M0 0 C0.66 0.33 1.32 0.66 2 1 C1.0479279 2.00596297 0.08812654 3.00461563 -0.875 4 C-1.40867187 4.556875 -1.94234375 5.11375 -2.4921875 5.6875 C-4 7 -4 7 -6 7 C-6 5.68 -6 4.36 -6 3 C-5.38125 2.87625 -4.7625 2.7525 -4.125 2.625 C-1.80879168 2.12802644 -1.80879168 2.12802644 0 0 Z " fill="#F7C80A" transform="translate(815,352)"/>
<path d="M0 0 C3.3 0.33 6.6 0.66 10 1 C5.78370866 3.10814567 3.60209225 3.17700355 -1 3 C-0.67 2.01 -0.34 1.02 0 0 Z " fill="#001D60" transform="translate(350,321)"/>
<path d="M0 0 C2.32947183 2.11770166 3.88750845 4.03335588 5 7 C4.67 7.99 4.34 8.98 4 10 C3.67 8.68 3.34 7.36 3 6 C2.34 6 1.68 6 1 6 C0.67 4.02 0.34 2.04 0 0 Z " fill="#00C1F7" transform="translate(531,541)"/>
<path d="M0 0 C0.66 0 1.32 0 2 0 C2.28875 0.78375 2.5775 1.5675 2.875 2.375 C3.84912254 5.09671632 3.84912254 5.09671632 6 7 C5.34 7 4.68 7 4 7 C3.67 7.66 3.34 8.32 3 9 C0 3.375 0 3.375 0 0 Z " fill="#0076EE" transform="translate(199,444)"/>
<path d="M0 0 C0.99 0 1.98 0 3 0 C2.67 0.99 2.34 1.98 2 3 C1.34 3 0.68 3 0 3 C-0.33 3.66 -0.66 4.32 -1 5 C-1.99 5.33 -2.98 5.66 -4 6 C-2.84826645 3.53199953 -1.95216435 1.95216435 0 0 Z " fill="#020B59" transform="translate(814,355)"/>
<path d="M0 0 C0.66 0.33 1.32 0.66 2 1 C1.34 2.32 0.68 3.64 0 5 C-0.66 5 -1.32 5 -2 5 C-2.33 5.99 -2.66 6.98 -3 8 C-3.33 7.34 -3.66 6.68 -4 6 C-2.68 4.02 -1.36 2.04 0 0 Z " fill="#000D40" transform="translate(468,333)"/>
<path d="M0 0 C0.33 0.66 0.66 1.32 1 2 C0.06553465 4.03144641 -0.93224776 6.03533587 -2 8 C-2.99 7.67 -3.98 7.34 -5 7 C-3.35 4.69 -1.7 2.38 0 0 Z " fill="#010D3D" transform="translate(474,324)"/>
<path d="M0 0 C-0.66 0 -1.32 0 -2 0 C-2.33 0.99 -2.66 1.98 -3 3 C-4.65 3.33 -6.3 3.66 -8 4 C-7 1 -7 1 -5.125 -0.25 C-3 -1 -3 -1 0 0 Z " fill="#F9C20B" transform="translate(588,249)"/>
<path d="M0 0 C3.36720387 1.39332574 4.9859524 2.9789286 7 6 C6.01 6.495 6.01 6.495 5 7 C5 6.34 5 5.68 5 5 C4.360625 4.731875 3.72125 4.46375 3.0625 4.1875 C1 3 1 3 0 0 Z " fill="#161353" transform="translate(512,481)"/>
<path d="M0 0 C2.9375 0.8125 2.9375 0.8125 6 2 C6.33 2.99 6.66 3.98 7 5 C6.01 5.33 5.02 5.66 4 6 C2.68 4.02 1.36 2.04 0 0 Z " fill="#F28512" transform="translate(494,463)"/>
<path d="M0 0 C0 0.66 0 1.32 0 2 C-3.62326739 3.2077558 -4.64146369 2.54311128 -8 1 C-8 0.67 -8 0.34 -8 0 C-4.71303767 -0.79953138 -3.28976808 -1.09658936 0 0 Z " fill="#ECBA0F" transform="translate(624,237)"/>
</svg>
